<?xml version="1.0" standalone="no"?>
<!DOCTYPE svg PUBLIC "-//W3C//DTD SVG 20010904//EN"
 "http://www.w3.org/TR/2001/REC-SVG-20010904/DTD/svg10.dtd">
<svg version="1.0" xmlns="http://www.w3.org/2000/svg"
 width="1000.000000pt" height="1000.000000pt" viewBox="0 0 1000.000000 1000.000000"
 preserveAspectRatio="xMidYMid meet">

<g transform="translate(0.000000,1000.000000) scale(0.100000,-0.100000)"
fill="#000000" stroke="none">
<path d="M2523 7615 c-106 -33 -205 -123 -244 -223 -31 -80 -31 -204 0 -284
31 -80 106 -159 189 -200 l67 -33 1162 -3 1163 -2 0 380 0 380 -1147 -1 c-920
0 -1156 -3 -1190 -14z"/>
<path d="M4290 4830 c0 -940 -3 -1710 -6 -1710 -3 0 -54 20 -113 44 -162 66
-322 150 -437 227 -484 324 -832 788 -1066 1421 -46 123 -59 148 -98 187 -112
111 -280 156 -435 116 -165 -43 -299 -189 -328 -359 -13 -77 -2 -124 85 -356
387 -1037 1068 -1749 2008 -2102 278 -104 554 -163 898 -192 l62 -6 0 2220 0
2220 -285 0 -285 0 0 -1710z"/>
<path d="M5313 1476 c-89 -29 -176 -107 -215 -194 -32 -69 -32 -227 -1 -295
33 -71 113 -150 186 -183 53 -24 75 -28 152 -29 100 0 163 17 230 63 l40 28 3
147 3 147 -161 0 -160 0 0 -60 0 -60 91 0 90 0 -3 -52 -3 -53 -58 -14 c-84
-20 -155 -3 -213 51 -50 46 -67 89 -66 166 0 67 34 138 82 170 75 50 184 54
267 8 25 -14 47 -26 48 -26 1 0 19 26 40 57 43 65 44 64 -55 112 -46 22 -70
26 -155 28 -63 2 -116 -2 -142 -11z"/>
<path d="M5850 1130 l0 -350 230 0 230 0 0 65 0 65 -155 0 -155 0 0 75 0 75
135 0 135 0 0 65 0 65 -135 0 -136 0 3 83 3 82 153 3 152 3 0 59 0 60 -230 0
-230 0 0 -350z"/>
<path d="M6440 1130 l0 -350 80 0 80 0 0 211 0 212 153 -211 152 -212 58 0 57
0 0 350 0 350 -75 0 -75 0 -2 -206 -3 -206 -150 206 -149 206 -63 0 -63 0 0
-350z"/>
</g>
</svg>
