<svg version="1.1" id="Layer_1" xmlns="http://www.w3.org/2000/svg" xmlns:xlink="http://www.w3.org/1999/xlink" x="0px" y="0px"
	 width="100%" viewBox="0 0 160 160" enable-background="new 0 0 160 160" xml:space="preserve">
<path fill="#FDFEFE" opacity="1.000000" stroke="none" 
	d="
M101.000000,161.000000 
	C67.333336,161.000000 34.166676,161.000000 1.000009,161.000000 
	C1.000006,107.666679 1.000006,54.333355 1.000003,1.000023 
	C54.333317,1.000015 107.666634,1.000015 160.999969,1.000008 
	C160.999969,54.333309 160.999969,107.666618 160.999985,160.999969 
	C141.166672,161.000000 121.333336,161.000000 101.000000,161.000000 
M41.757278,59.233120 
	C52.851082,59.157875 63.944885,59.082634 75.510674,59.191166 
	C75.668236,59.130505 75.825798,59.069843 76.802307,59.029377 
	C77.094490,55.088970 77.386681,51.148567 77.694870,46.992271 
	C64.773438,46.992271 52.726425,46.970818 40.679886,47.036316 
	C39.794067,47.041130 38.911663,47.673512 37.269825,48.114273 
	C36.536312,50.620773 34.924755,53.305233 35.383770,55.570038 
	C35.680504,57.034134 39.008221,57.883930 41.757278,59.233120 
M116.564705,59.455971 
	C116.898399,60.636250 117.232094,61.816525 117.854134,64.016685 
	C122.294998,60.404198 126.170403,57.251690 130.623978,53.628868 
	C126.831444,50.288548 123.726089,47.256771 120.304436,44.638329 
	C117.792755,42.716251 116.823372,44.219677 116.161026,46.969170 
	C114.790329,47.020565 113.419632,47.071964 111.116348,46.971474 
	C104.062965,47.022217 97.009575,47.072964 89.062386,47.024136 
	C87.446175,47.024136 85.829956,47.024136 84.171875,47.024136 
	C84.171875,51.314209 84.171875,55.162266 84.171875,58.988483 
	C95.063576,58.988483 105.527092,58.988483 116.564705,59.455971 
M74.177872,65.006493 
	C72.783493,65.058861 71.389114,65.111229 69.123741,65.038925 
	C68.749702,65.969986 68.051407,66.900429 68.049614,67.832207 
	C68.015572,85.563835 68.063606,103.295616 67.378021,121.372749 
	C64.438889,119.886368 61.345364,118.640251 58.589188,116.869148 
	C49.856140,111.257301 44.816082,102.807922 41.104107,93.399727 
	C39.452415,89.213432 35.360043,87.149483 31.594648,89.045357 
	C28.079500,90.815231 25.819439,93.643127 27.850025,97.936554 
	C30.519264,103.580330 32.664757,109.592384 36.110245,114.724525 
	C44.486340,127.200920 55.993614,135.298325 71.936699,137.794662 
	C73.684692,137.895508 75.432678,137.996353 77.476761,138.114273 
	C77.476761,114.652931 77.515091,91.748535 77.371353,68.845284 
	C77.363609,67.610970 75.828056,66.386253 74.177872,65.006493 
M90.910416,137.235825 
	C96.000633,135.483200 101.184860,133.961426 106.163330,131.934357 
	C120.709320,126.011734 135.532349,102.623215 134.615707,86.278061 
	C134.052902,85.952812 133.493408,85.350960 132.926773,85.344154 
	C125.454010,85.254425 117.967285,85.003128 110.515953,85.396461 
	C108.683662,85.493187 106.965965,87.760605 104.923599,89.831055 
	C105.247437,91.729271 104.980560,94.796265 106.002686,95.312851 
	C109.466904,97.063690 113.387283,97.911972 117.268639,99.148201 
	C112.972809,109.888634 104.654564,117.068626 92.940300,121.711349 
	C92.940300,119.635406 92.940010,118.028320 92.940353,116.421242 
	C92.943657,100.803703 92.973900,85.186058 92.906570,69.568825 
	C92.900230,68.097427 92.280014,66.628670 91.048340,65.020226 
	C88.772804,65.020226 86.497269,65.020226 84.046478,65.020226 
	C84.046478,89.600212 84.046478,113.704887 84.046478,138.397217 
	C86.331268,137.936127 88.212006,137.556564 90.910416,137.235825 
M75.252747,19.749187 
	C70.088341,22.252266 68.274704,26.506626 68.956924,31.989708 
	C69.700157,37.963078 75.584999,41.965267 82.112778,41.010628 
	C88.072769,40.139023 92.022179,34.221817 90.993317,27.705357 
	C90.121277,22.182138 85.602318,19.060184 79.743164,19.779181 
	C78.503868,19.931259 77.200211,19.558863 75.252747,19.749187 
z"/>
<path fill="#21ABEC" opacity="1.000000" stroke="none" 
	d="
M91.944801,65.158691 
	C92.280014,66.628670 92.900230,68.097427 92.906570,69.568825 
	C92.973900,85.186058 92.943657,100.803703 92.940353,116.421242 
	C92.940010,118.028320 92.940300,119.635406 92.940300,121.711349 
	C104.654564,117.068626 112.972809,109.888634 117.268639,99.148201 
	C113.387283,97.911972 109.466904,97.063690 106.002686,95.312851 
	C104.980560,94.796265 105.247437,91.729271 105.429413,89.356445 
	C108.091454,88.238327 110.233978,87.101181 112.406387,87.040924 
	C119.874214,86.833801 127.352501,87.003487 134.826797,87.029572 
	C135.532349,102.623215 120.709320,126.011734 106.163330,131.934357 
	C101.184860,133.961426 96.000633,135.483200 90.265930,136.969696 
	C88.223129,136.703568 86.824821,136.703568 85.398354,136.703568 
	C85.398354,112.962814 85.398354,89.695312 85.398354,66.624763 
	C87.859528,66.073586 89.902161,65.616135 91.944801,65.158691 
z"/>
<path fill="#100373" opacity="1.000000" stroke="none" 
	d="
M69.994736,65.163605 
	C71.389114,65.111229 72.783493,65.058861 74.650810,65.486305 
	C75.415504,67.751282 75.955742,69.535713 75.961006,71.321724 
	C76.020927,91.631470 75.901215,111.942352 76.087250,132.250565 
	C76.121742,136.015228 74.876488,137.455322 71.297554,137.176865 
	C55.993614,135.298325 44.486340,127.200920 36.110245,114.724525 
	C32.664757,109.592384 30.519264,103.580330 27.850025,97.936554 
	C25.819439,93.643127 28.079500,90.815231 31.594648,89.045357 
	C35.360043,87.149483 39.452415,89.213432 41.104107,93.399727 
	C44.816082,102.807922 49.856140,111.257301 58.589188,116.869148 
	C61.345364,118.640251 64.438889,119.886368 68.123970,121.091415 
	C69.246712,119.137299 69.943039,117.466034 69.950897,115.791527 
	C70.030144,98.915855 69.996590,82.039650 69.994736,65.163605 
z"/>
<path fill="#21ABEC" opacity="1.000000" stroke="none" 
	d="
M89.956192,47.123711 
	C97.009575,47.072964 104.062965,47.022217 111.825653,47.300758 
	C114.016212,47.375637 115.497475,47.121235 116.978737,46.866829 
	C116.823372,44.219677 117.792755,42.716251 120.304436,44.638329 
	C123.726089,47.256771 126.831444,50.288548 130.623978,53.628868 
	C126.170403,57.251690 122.294998,60.404198 117.854134,64.016685 
	C117.232094,61.816525 116.898399,60.636250 115.985161,58.924957 
	C107.789726,58.262730 100.174271,58.078453 92.557816,58.014900 
	C84.598961,57.948486 84.593742,57.998989 85.045937,50.156197 
	C85.073486,49.678318 85.270058,49.210186 85.399269,48.692299 
	C86.943932,48.160591 88.450066,47.642151 89.956192,47.123711 
z"/>
<path fill="#0F0173" opacity="1.000000" stroke="none" 
	d="
M75.983353,59.009182 
	C75.825798,59.069843 75.668236,59.130505 74.874893,59.081772 
	C73.712967,58.890461 73.186821,58.808540 72.385361,58.467491 
	C67.625923,58.138908 63.139114,57.939651 58.658356,58.032524 
	C52.926857,58.151321 47.200233,58.505589 41.349197,58.823288 
	C41.226883,58.888199 40.977684,59.009010 40.977684,59.009010 
	C39.008221,57.883930 35.680504,57.034134 35.383770,55.570038 
	C34.924755,53.305233 36.536312,50.620773 38.115913,48.057732 
	C47.717930,48.001148 56.473858,48.001091 65.229790,48.001072 
	C76.047981,48.001049 76.047981,48.001064 75.983353,59.009182 
z"/>
<path fill="#1DABEC" opacity="1.000000" stroke="none" 
	d="
M75.589478,19.588654 
	C77.200211,19.558863 78.503868,19.931259 79.743164,19.779181 
	C85.602318,19.060184 90.121277,22.182138 90.993317,27.705357 
	C92.022179,34.221817 88.072769,40.139023 82.112778,41.010628 
	C75.584999,41.965267 69.700157,37.963078 68.956924,31.989708 
	C68.274704,26.506626 70.088341,22.252266 75.589478,19.588654 
M79.592857,23.990524 
	C78.170631,24.693312 75.848473,25.107992 75.512177,26.158436 
	C74.796326,28.394463 74.415985,31.234169 75.228981,33.303635 
	C75.859711,34.909115 79.443069,37.086349 80.092941,36.641464 
	C82.433945,35.038876 85.073593,32.698498 85.761459,30.142012 
	C86.693687,26.677391 84.018562,24.481230 79.592857,23.990524 
z"/>
<path fill="#03046E" opacity="1.000000" stroke="none" 
	d="
M71.617126,137.485764 
	C74.876488,137.455322 76.121742,136.015228 76.087250,132.250565 
	C75.901215,111.942352 76.020927,91.631470 75.961006,71.321724 
	C75.955742,69.535713 75.415504,67.751282 75.063721,65.561592 
	C75.828056,66.386253 77.363609,67.610970 77.371353,68.845284 
	C77.515091,91.748535 77.476761,114.652931 77.476761,138.114273 
	C75.432678,137.996353 73.684692,137.895508 71.617126,137.485764 
z"/>
<path fill="#010173" opacity="1.000000" stroke="none" 
	d="
M69.559235,65.101257 
	C69.996590,82.039650 70.030144,98.915855 69.950897,115.791527 
	C69.943039,117.466034 69.246712,119.137299 68.482262,120.918716 
	C68.063606,103.295616 68.015572,85.563835 68.049614,67.832207 
	C68.051407,66.900429 68.749702,65.969986 69.559235,65.101257 
z"/>
<path fill="#03A9E8" opacity="1.000000" stroke="none" 
	d="
M91.496567,65.089462 
	C89.902161,65.616135 87.859528,66.073586 85.398354,66.624763 
	C85.398354,89.695312 85.398354,112.962814 85.398354,136.703568 
	C86.824821,136.703568 88.223129,136.703568 89.857086,136.940292 
	C88.212006,137.556564 86.331268,137.936127 84.046478,138.397217 
	C84.046478,113.704887 84.046478,89.600212 84.046478,65.020226 
	C86.497269,65.020226 88.772804,65.020226 91.496567,65.089462 
z"/>
<path fill="#090968" opacity="1.000000" stroke="none" 
	d="
M76.392830,59.019279 
	C76.047981,48.001064 76.047981,48.001049 65.229790,48.001072 
	C56.473858,48.001091 47.717930,48.001148 38.494835,48.007660 
	C38.911663,47.673512 39.794067,47.041130 40.679886,47.036316 
	C52.726425,46.970818 64.773438,46.992271 77.694870,46.992271 
	C77.386681,51.148567 77.094490,55.088970 76.392830,59.019279 
z"/>
<path fill="#3CB5EE" opacity="1.000000" stroke="none" 
	d="
M134.721252,86.653816 
	C127.352501,87.003487 119.874214,86.833801 112.406387,87.040924 
	C110.233978,87.101181 108.091454,88.238327 105.565407,88.955963 
	C106.965965,87.760605 108.683662,85.493187 110.515953,85.396461 
	C117.967285,85.003128 125.454010,85.254425 132.926773,85.344154 
	C133.493408,85.350960 134.052902,85.952812 134.721252,86.653816 
z"/>
<path fill="#02A5EB" opacity="1.000000" stroke="none" 
	d="
M89.509293,47.073921 
	C88.450066,47.642151 86.943932,48.160591 85.399269,48.692299 
	C85.270058,49.210186 85.073486,49.678318 85.045937,50.156197 
	C84.593742,57.998989 84.598961,57.948486 92.557816,58.014900 
	C100.174271,58.078453 107.789726,58.262730 115.698105,58.691216 
	C105.527092,58.988483 95.063576,58.988483 84.171875,58.988483 
	C84.171875,55.162266 84.171875,51.314209 84.171875,47.024136 
	C85.829956,47.024136 87.446175,47.024136 89.509293,47.073921 
z"/>
<path fill="#090968" opacity="1.000000" stroke="none" 
	d="
M72.660683,58.726624 
	C73.186821,58.808540 73.712967,58.890461 74.638901,58.989883 
	C63.944885,59.082634 52.851082,59.157875 41.367481,59.121063 
	C40.977684,59.009010 41.226883,58.888199 41.764595,58.891205 
	C52.421768,58.838352 62.541225,58.782486 72.660683,58.726624 
z"/>
<path fill="#02A5EB" opacity="1.000000" stroke="none" 
	d="
M116.569885,46.917999 
	C115.497475,47.121235 114.016212,47.375637 112.291946,47.376701 
	C113.419632,47.071964 114.790329,47.020565 116.569885,46.917999 
z"/>
<path fill="#000269" opacity="1.000000" stroke="none" 
	d="
M72.385361,58.467491 
	C62.541225,58.782486 52.421768,58.838352 41.886909,58.826298 
	C47.200233,58.505589 52.926857,58.151321 58.658356,58.032524 
	C63.139114,57.939651 67.625923,58.138908 72.385361,58.467491 
z"/>
<path fill="#F5FAFB" opacity="1.000000" stroke="none" 
	d="
M79.994835,23.990047 
	C84.018562,24.481230 86.693687,26.677391 85.761459,30.142012 
	C85.073593,32.698498 82.433945,35.038876 80.092941,36.641464 
	C79.443069,37.086349 75.859711,34.909115 75.228981,33.303635 
	C74.415985,31.234169 74.796326,28.394463 75.512177,26.158436 
	C75.848473,25.107992 78.170631,24.693312 79.994835,23.990047 
z"/>
</svg>